<svg xmlns="http://www.w3.org/2000/svg" xmlns:xlink="http://www.w3.org/1999/xlink" width="500" zoomAndPan="magnify" viewBox="0 0 375 374.999991" height="500" preserveAspectRatio="xMidYMid meet" version="1.0"><defs><clipPath id="9cce2f6451"><path d="M 37.5 144.1875 L 337.5 144.1875 L 337.5 231.1875 L 37.5 231.1875 Z M 37.5 144.1875 " clip-rule="nonzero"/></clipPath></defs><g clip-path="url(#9cce2f6451)"><path fill="#ffffff" d="M 39.910156 212.023438 L 39.910156 178.59375 L 81.46875 178.59375 L 81.46875 176.636719 L 39.910156 176.636719 L 39.910156 146.140625 L 84.097656 146.140625 L 84.097656 144.1875 L 37.964844 144.1875 L 37.964844 213.976562 L 84.484375 213.976562 L 84.484375 212.023438 Z M 121.957031 163.734375 L 104.730469 186.511719 L 87.890625 163.734375 L 85.363281 163.734375 L 103.5625 187.976562 L 83.609375 213.976562 L 85.945312 213.976562 L 104.730469 189.441406 L 123.609375 213.976562 L 126.039062 213.976562 L 105.992188 187.976562 L 124.292969 163.734375 Z M 131.882812 231.183594 L 131.882812 199.902344 L 132.074219 199.902344 C 133.242188 204.460938 135.550781 208.128906 138.984375 210.894531 C 142.425781 213.664062 146.804688 215.050781 152.128906 215.050781 C 155.5625 215.050781 158.609375 214.351562 161.273438 212.949219 C 163.933594 211.546875 166.15625 209.640625 167.9375 207.234375 C 169.726562 204.824219 171.085938 202.019531 172.027344 198.828125 C 172.96875 195.632812 173.4375 192.277344 173.4375 188.757812 C 173.4375 184.980469 172.949219 181.492188 171.980469 178.300781 C 171.003906 175.109375 169.59375 172.339844 167.746094 169.992188 C 165.894531 167.648438 163.65625 165.824219 161.027344 164.519531 C 158.402344 163.214844 155.433594 162.5625 152.128906 162.5625 C 149.59375 162.5625 147.242188 162.9375 145.070312 163.6875 C 142.898438 164.4375 140.964844 165.496094 139.277344 166.863281 C 137.59375 168.234375 136.132812 169.847656 134.902344 171.703125 C 133.667969 173.558594 132.722656 175.597656 132.074219 177.8125 L 131.882812 177.8125 L 131.882812 163.738281 L 129.9375 163.738281 L 129.9375 231.183594 Z M 152.128906 213.195312 C 146.027344 213.195312 141.128906 211.097656 137.429688 206.890625 C 133.734375 202.6875 131.882812 196.644531 131.882812 188.757812 C 131.882812 185.5 132.335938 182.40625 133.242188 179.472656 C 134.152344 176.542969 135.46875 173.96875 137.183594 171.753906 C 138.902344 169.535156 141.027344 167.777344 143.558594 166.472656 C 146.09375 165.171875 148.945312 164.519531 152.128906 164.519531 C 155.367188 164.519531 158.207031 165.171875 160.636719 166.472656 C 163.074219 167.777344 165.082031 169.554688 166.671875 171.800781 C 168.265625 174.050781 169.464844 176.625 170.277344 179.523438 C 171.085938 182.421875 171.492188 185.5 171.492188 188.757812 C 171.492188 191.691406 171.117188 194.609375 170.375 197.507812 C 169.628906 200.40625 168.476562 203.011719 166.917969 205.328125 C 165.363281 207.640625 163.367188 209.53125 160.929688 210.996094 C 158.5 212.460938 155.5625 213.195312 152.128906 213.195312 Z M 184.144531 213.976562 L 184.144531 185.535156 C 184.144531 182.796875 184.535156 180.125 185.3125 177.519531 C 186.085938 174.914062 187.289062 172.617188 188.914062 170.628906 C 190.53125 168.640625 192.59375 167.078125 195.09375 165.9375 C 197.589844 164.796875 200.554688 164.324219 203.996094 164.519531 L 203.996094 162.5625 C 201.011719 162.5 198.402344 162.824219 196.164062 163.542969 C 193.925781 164.257812 191.992188 165.234375 190.375 166.472656 C 188.75 167.710938 187.453125 169.160156 186.480469 170.824219 C 185.503906 172.484375 184.789062 174.261719 184.339844 176.152344 L 184.144531 176.152344 L 184.144531 163.738281 L 182.199219 163.738281 L 182.199219 213.976562 Z M 206.433594 189.246094 L 248.277344 189.246094 C 248.40625 185.792969 248.070312 182.472656 247.257812 179.277344 C 246.445312 176.085938 245.148438 173.25 243.367188 170.773438 C 241.578125 168.296875 239.277344 166.3125 236.457031 164.8125 C 233.628906 163.3125 230.277344 162.5625 226.378906 162.5625 C 223.59375 162.5625 220.867188 163.152344 218.207031 164.324219 C 215.542969 165.496094 213.207031 167.207031 211.199219 169.453125 C 209.191406 171.703125 207.566406 174.457031 206.332031 177.714844 C 205.101562 180.972656 204.480469 184.6875 204.480469 188.855469 C 204.480469 192.570312 204.90625 196.042969 205.75 199.265625 C 206.589844 202.492188 207.894531 205.292969 209.640625 207.667969 C 211.390625 210.050781 213.648438 211.894531 216.402344 213.195312 C 219.160156 214.5 222.488281 215.121094 226.378906 215.050781 C 232.09375 215.050781 236.894531 213.4375 240.785156 210.214844 C 244.675781 206.988281 246.980469 202.445312 247.695312 196.578125 L 245.75 196.578125 C 244.902344 202.117188 242.746094 206.273438 239.277344 209.042969 C 235.808594 211.8125 231.445312 213.195312 226.1875 213.195312 C 222.617188 213.195312 219.597656 212.574219 217.132812 211.335938 C 214.667969 210.097656 212.660156 208.402344 211.101562 206.257812 C 209.546875 204.101562 208.394531 201.578125 207.648438 198.679688 C 206.898438 195.78125 206.496094 192.636719 206.433594 189.246094 Z M 246.332031 187.292969 L 206.433594 187.292969 C 206.625 183.773438 207.273438 180.613281 208.378906 177.8125 C 209.480469 175.011719 210.925781 172.617188 212.707031 170.628906 C 214.492188 168.640625 216.566406 167.125 218.9375 166.082031 C 221.304688 165.039062 223.851562 164.519531 226.574219 164.519531 C 229.820312 164.519531 232.675781 165.121094 235.140625 166.328125 C 237.605469 167.53125 239.664062 169.179688 241.320312 171.261719 C 242.976562 173.347656 244.226562 175.777344 245.066406 178.546875 C 245.914062 181.316406 246.332031 184.230469 246.332031 187.292969 Z M 288.664062 178.59375 L 290.617188 178.59375 C 290.617188 172.988281 288.992188 168.917969 285.75 166.375 C 282.503906 163.835938 278.09375 162.5625 272.515625 162.5625 C 269.394531 162.5625 266.773438 162.957031 264.628906 163.738281 C 262.484375 164.519531 260.738281 165.527344 259.371094 166.765625 C 258.011719 168.003906 257.035156 169.375 256.449219 170.871094 C 255.871094 172.371094 255.582031 173.804688 255.582031 175.171875 C 255.582031 177.910156 256.066406 180.09375 257.035156 181.722656 C 258.011719 183.351562 259.535156 184.621094 261.613281 185.535156 C 263.039062 186.1875 264.664062 186.773438 266.480469 187.292969 C 268.296875 187.816406 270.40625 188.367188 272.804688 188.953125 C 274.945312 189.476562 277.050781 189.996094 279.132812 190.519531 C 281.207031 191.039062 283.039062 191.742188 284.628906 192.621094 C 286.21875 193.5 287.515625 194.625 288.519531 195.992188 C 289.53125 197.359375 290.03125 199.152344 290.03125 201.367188 C 290.03125 203.515625 289.53125 205.339844 288.519531 206.84375 C 287.515625 208.339844 286.234375 209.566406 284.675781 210.507812 C 283.121094 211.453125 281.386719 212.132812 279.472656 212.5625 C 277.554688 212.984375 275.691406 213.195312 273.875 213.195312 C 267.96875 213.195312 263.441406 211.875 260.300781 209.234375 C 257.152344 206.597656 255.582031 202.445312 255.582031 196.773438 L 253.628906 196.773438 C 253.628906 203.09375 255.335938 207.722656 258.742188 210.65625 C 262.144531 213.582031 267.191406 215.050781 273.875 215.050781 C 276.011719 215.050781 278.175781 214.808594 280.347656 214.316406 C 282.519531 213.828125 284.464844 213.03125 286.1875 211.921875 C 287.90625 210.8125 289.300781 209.382812 290.371094 207.621094 C 291.441406 205.863281 291.976562 203.714844 291.976562 201.171875 C 291.976562 198.761719 291.503906 196.808594 290.5625 195.308594 C 289.621094 193.808594 288.390625 192.570312 286.867188 191.59375 C 285.339844 190.617188 283.625 189.851562 281.707031 189.296875 C 279.792969 188.742188 277.863281 188.207031 275.917969 187.683594 C 273.191406 186.96875 270.808594 186.347656 268.765625 185.828125 C 266.71875 185.304688 264.820312 184.6875 263.070312 183.96875 C 261.386719 183.253906 260.039062 182.226562 259.03125 180.890625 C 258.027344 179.554688 257.527344 177.648438 257.527344 175.171875 C 257.527344 174.71875 257.652344 173.902344 257.910156 172.730469 C 258.175781 171.554688 258.789062 170.367188 259.761719 169.160156 C 260.738281 167.957031 262.226562 166.882812 264.238281 165.9375 C 266.253906 164.992188 269.007812 164.519531 272.515625 164.519531 C 274.914062 164.519531 277.097656 164.78125 279.078125 165.300781 C 281.058594 165.824219 282.765625 166.652344 284.191406 167.792969 C 285.617188 168.933594 286.71875 170.382812 287.496094 172.144531 C 288.28125 173.902344 288.664062 176.054688 288.664062 178.59375 Z M 333.730469 178.59375 L 335.675781 178.59375 C 335.675781 172.988281 334.050781 168.917969 330.808594 166.375 C 327.5625 163.835938 323.152344 162.5625 317.574219 162.5625 C 314.460938 162.5625 311.832031 162.957031 309.6875 163.738281 C 307.550781 164.519531 305.796875 165.527344 304.429688 166.765625 C 303.070312 168.003906 302.101562 169.375 301.515625 170.871094 C 300.929688 172.371094 300.640625 173.804688 300.640625 175.171875 C 300.640625 177.910156 301.125 180.09375 302.101562 181.722656 C 303.070312 183.351562 304.59375 184.621094 306.671875 185.535156 C 308.097656 186.1875 309.722656 186.773438 311.539062 187.292969 C 313.355469 187.816406 315.464844 188.367188 317.863281 188.953125 C 320.003906 189.476562 322.113281 189.996094 324.191406 190.519531 C 326.265625 191.039062 328.097656 191.742188 329.6875 192.621094 C 331.277344 193.5 332.574219 194.625 333.582031 195.992188 C 334.589844 197.359375 335.089844 199.152344 335.089844 201.367188 C 335.089844 203.515625 334.589844 205.339844 333.582031 206.84375 C 332.574219 208.339844 331.292969 209.566406 329.734375 210.507812 C 328.179688 211.453125 326.445312 212.132812 324.53125 212.5625 C 322.613281 212.984375 320.75 213.195312 318.933594 213.195312 C 313.027344 213.195312 308.5 211.875 305.359375 209.234375 C 302.210938 206.597656 300.640625 202.445312 300.640625 196.773438 L 298.6875 196.773438 C 298.6875 203.09375 300.394531 207.722656 303.800781 210.65625 C 307.203125 213.582031 312.25 215.050781 318.933594 215.050781 C 321.078125 215.050781 323.234375 214.808594 325.40625 214.316406 C 327.578125 213.828125 329.523438 213.03125 331.246094 211.921875 C 332.964844 210.8125 334.359375 209.382812 335.429688 207.621094 C 336.5 205.863281 337.035156 203.714844 337.035156 201.171875 C 337.035156 198.761719 336.5625 196.808594 335.621094 195.308594 C 334.683594 193.808594 333.449219 192.570312 331.925781 191.59375 C 330.402344 190.617188 328.683594 189.851562 326.765625 189.296875 C 324.855469 188.742188 322.921875 188.207031 320.980469 187.683594 C 318.25 186.96875 315.867188 186.347656 313.824219 185.828125 C 311.777344 185.304688 309.886719 184.6875 308.132812 183.96875 C 306.445312 183.253906 305.097656 182.226562 304.089844 180.890625 C 303.085938 179.554688 302.585938 177.648438 302.585938 175.171875 C 302.585938 174.71875 302.714844 173.902344 302.976562 172.730469 C 303.234375 171.554688 303.851562 170.367188 304.820312 169.160156 C 305.796875 167.957031 307.285156 166.882812 309.300781 165.9375 C 311.3125 164.992188 314.070312 164.519531 317.574219 164.519531 C 319.972656 164.519531 322.164062 164.78125 324.136719 165.300781 C 326.117188 165.824219 327.824219 166.652344 329.25 167.792969 C 330.675781 168.933594 331.777344 170.382812 332.5625 172.144531 C 333.339844 173.902344 333.730469 176.054688 333.730469 178.59375 Z M 333.730469 178.59375 " fill-opacity="1" fill-rule="nonzero"/></g></svg>