<svg xmlns="http://www.w3.org/2000/svg" xmlns:xlink="http://www.w3.org/1999/xlink" width="500" zoomAndPan="magnify" viewBox="0 0 375 374.999991" height="500" preserveAspectRatio="xMidYMid meet" version="1.0"><defs><clipPath id="3341d35dee"><path d="M 37.5 37.5 L 337.5 37.5 L 337.5 337.5 L 37.5 337.5 Z M 37.5 37.5 " clip-rule="nonzero"/></clipPath></defs><g clip-path="url(#3341d35dee)"><path fill="#f03c2e" d="M 331.835938 174.140625 L 200.859375 43.164062 C 200.410156 42.714844 199.945312 42.289062 199.453125 41.890625 C 198.964844 41.488281 198.457031 41.109375 197.933594 40.757812 C 197.40625 40.40625 196.863281 40.082031 196.304688 39.785156 C 195.75 39.484375 195.175781 39.214844 194.59375 38.972656 C 194.007812 38.730469 193.414062 38.519531 192.808594 38.335938 C 192.203125 38.152344 191.589844 37.996094 190.96875 37.875 C 190.347656 37.75 189.722656 37.65625 189.09375 37.59375 C 188.464844 37.535156 187.832031 37.503906 187.199219 37.503906 C 186.566406 37.503906 185.9375 37.535156 185.304688 37.59375 C 184.675781 37.65625 184.050781 37.75 183.429688 37.875 C 182.8125 37.996094 182.199219 38.152344 181.59375 38.335938 C 180.988281 38.519531 180.390625 38.730469 179.808594 38.972656 C 179.222656 39.214844 178.652344 39.484375 178.09375 39.785156 C 177.535156 40.082031 176.992188 40.40625 176.46875 40.757812 C 175.941406 41.109375 175.433594 41.488281 174.945312 41.890625 C 174.457031 42.289062 173.988281 42.714844 173.539062 43.164062 L 146.351562 70.351562 L 180.851562 104.851562 C 188.878906 102.039062 198.066406 103.960938 204.460938 110.351562 C 205.214844 111.113281 205.917969 111.917969 206.5625 112.777344 C 207.207031 113.632812 207.785156 114.53125 208.304688 115.46875 C 208.824219 116.40625 209.273438 117.375 209.65625 118.375 C 210.039062 119.378906 210.351562 120.398438 210.589844 121.445312 C 210.832031 122.488281 210.996094 123.546875 211.085938 124.613281 C 211.179688 125.679688 211.195312 126.75 211.136719 127.820312 C 211.082031 128.890625 210.949219 129.953125 210.742188 131.003906 C 210.535156 132.054688 210.257812 133.085938 209.90625 134.101562 L 243.160156 167.351562 C 251.203125 164.578125 260.484375 166.367188 266.90625 172.808594 C 267.4375 173.34375 267.945312 173.898438 268.421875 174.480469 C 268.902344 175.0625 269.347656 175.667969 269.769531 176.292969 C 270.1875 176.921875 270.574219 177.566406 270.929688 178.230469 C 271.285156 178.894531 271.605469 179.574219 271.894531 180.269531 C 272.183594 180.964844 272.4375 181.675781 272.65625 182.394531 C 272.875 183.117188 273.058594 183.84375 273.203125 184.585938 C 273.351562 185.324219 273.460938 186.066406 273.535156 186.816406 C 273.609375 187.566406 273.644531 188.316406 273.644531 189.070312 C 273.644531 189.824219 273.609375 190.574219 273.535156 191.324219 C 273.460938 192.074219 273.351562 192.820312 273.203125 193.558594 C 273.058594 194.296875 272.875 195.027344 272.65625 195.746094 C 272.4375 196.46875 272.183594 197.175781 271.894531 197.875 C 271.609375 198.570312 271.285156 199.25 270.929688 199.914062 C 270.574219 200.578125 270.1875 201.222656 269.769531 201.847656 C 269.351562 202.476562 268.902344 203.078125 268.425781 203.664062 C 267.949219 204.246094 267.441406 204.800781 266.910156 205.335938 C 266.375 205.867188 265.820312 206.371094 265.238281 206.851562 C 264.65625 207.328125 264.050781 207.777344 263.421875 208.195312 C 262.796875 208.613281 262.152344 209 261.488281 209.355469 C 260.824219 209.710938 260.144531 210.03125 259.445312 210.320312 C 258.75 210.605469 258.042969 210.859375 257.320312 211.078125 C 256.601562 211.296875 255.871094 211.480469 255.132812 211.625 C 254.394531 211.773438 253.648438 211.882812 252.898438 211.957031 C 252.148438 212.03125 251.398438 212.066406 250.644531 212.066406 C 249.890625 212.066406 249.140625 212.027344 248.390625 211.953125 C 247.640625 211.882812 246.894531 211.769531 246.15625 211.621094 C 245.417969 211.476562 244.6875 211.292969 243.96875 211.074219 C 243.246094 210.855469 242.539062 210.601562 241.84375 210.3125 C 241.148438 210.023438 240.46875 209.703125 239.804688 209.347656 C 239.140625 208.992188 238.496094 208.601562 237.867188 208.183594 C 237.242188 207.765625 236.636719 207.316406 236.054688 206.839844 C 235.472656 206.359375 234.917969 205.855469 234.382812 205.320312 C 227.632812 198.570312 225.964844 188.632812 229.378906 180.320312 L 198.367188 149.304688 L 198.367188 230.914062 C 200.632812 232.035156 202.664062 233.488281 204.460938 235.265625 C 204.992188 235.796875 205.496094 236.355469 205.972656 236.9375 C 206.453125 237.519531 206.898438 238.125 207.320312 238.75 C 207.738281 239.375 208.125 240.019531 208.476562 240.683594 C 208.832031 241.347656 209.15625 242.027344 209.441406 242.722656 C 209.730469 243.417969 209.984375 244.128906 210.203125 244.847656 C 210.421875 245.570312 210.605469 246.296875 210.75 247.035156 C 210.898438 247.773438 211.007812 248.519531 211.082031 249.269531 C 211.15625 250.019531 211.191406 250.769531 211.191406 251.523438 C 211.191406 252.273438 211.15625 253.027344 211.082031 253.773438 C 211.007812 254.523438 210.898438 255.269531 210.75 256.007812 C 210.605469 256.746094 210.421875 257.476562 210.203125 258.195312 C 209.984375 258.914062 209.730469 259.625 209.441406 260.320312 C 209.15625 261.015625 208.832031 261.695312 208.476562 262.359375 C 208.125 263.023438 207.738281 263.667969 207.320312 264.292969 C 206.898438 264.921875 206.453125 265.523438 205.972656 266.105469 C 205.496094 266.6875 204.992188 267.246094 204.460938 267.777344 C 203.925781 268.308594 203.371094 268.816406 202.789062 269.292969 C 202.207031 269.769531 201.601562 270.21875 200.976562 270.636719 C 200.347656 271.054688 199.703125 271.441406 199.039062 271.796875 C 198.375 272.152344 197.695312 272.472656 197 272.761719 C 196.304688 273.050781 195.597656 273.304688 194.875 273.523438 C 194.15625 273.742188 193.425781 273.921875 192.6875 274.070312 C 191.949219 274.214844 191.207031 274.328125 190.457031 274.402344 C 189.707031 274.476562 188.957031 274.511719 188.203125 274.511719 C 187.449219 274.511719 186.699219 274.476562 185.949219 274.402344 C 185.199219 274.328125 184.457031 274.214844 183.71875 274.070312 C 182.980469 273.921875 182.25 273.742188 181.53125 273.523438 C 180.808594 273.304688 180.101562 273.050781 179.40625 272.761719 C 178.710938 272.472656 178.03125 272.152344 177.367188 271.796875 C 176.703125 271.441406 176.058594 271.054688 175.429688 270.636719 C 174.804688 270.21875 174.199219 269.769531 173.617188 269.292969 C 173.035156 268.816406 172.480469 268.308594 171.945312 267.777344 C 171.414062 267.246094 170.90625 266.6875 170.429688 266.105469 C 169.953125 265.527344 169.503906 264.921875 169.085938 264.296875 C 168.664062 263.667969 168.277344 263.023438 167.921875 262.359375 C 167.566406 261.695312 167.246094 261.015625 166.957031 260.320312 C 166.667969 259.625 166.414062 258.917969 166.195312 258.195312 C 165.976562 257.476562 165.792969 256.746094 165.648438 256.007812 C 165.5 255.269531 165.390625 254.523438 165.316406 253.777344 C 165.242188 253.027344 165.203125 252.273438 165.203125 251.523438 C 165.203125 250.769531 165.242188 250.015625 165.316406 249.269531 C 165.390625 248.519531 165.5 247.773438 165.648438 247.035156 C 165.792969 246.296875 165.976562 245.566406 166.195312 244.847656 C 166.414062 244.125 166.667969 243.417969 166.957031 242.722656 C 167.246094 242.027344 167.566406 241.347656 167.921875 240.683594 C 168.277344 240.019531 168.664062 239.375 169.085938 238.746094 C 169.503906 238.121094 169.953125 237.519531 170.429688 236.9375 C 170.90625 236.355469 171.414062 235.796875 171.945312 235.265625 C 174.167969 233.054688 176.632812 231.375 179.476562 230.25 L 179.476562 147.882812 C 176.738281 146.757812 174.167969 145.097656 171.945312 142.867188 C 171.144531 142.0625 170.40625 141.207031 169.730469 140.296875 C 169.054688 139.386719 168.449219 138.429688 167.914062 137.429688 C 167.378906 136.429688 166.921875 135.394531 166.542969 134.324219 C 166.160156 133.257812 165.863281 132.164062 165.640625 131.050781 C 165.421875 129.941406 165.289062 128.816406 165.234375 127.683594 C 165.183594 126.550781 165.210938 125.417969 165.328125 124.292969 C 165.441406 123.164062 165.640625 122.046875 165.917969 120.949219 C 166.199219 119.851562 166.558594 118.777344 166.996094 117.730469 L 132.964844 83.71875 L 43.152344 173.4375 C 42.707031 173.886719 42.28125 174.351562 41.878906 174.84375 C 41.476562 175.332031 41.101562 175.839844 40.75 176.363281 C 40.394531 176.890625 40.070312 177.433594 39.773438 177.992188 C 39.472656 178.550781 39.203125 179.121094 38.960938 179.707031 C 38.71875 180.289062 38.503906 180.886719 38.320312 181.492188 C 38.136719 182.097656 37.984375 182.710938 37.859375 183.332031 C 37.738281 183.953125 37.644531 184.578125 37.582031 185.207031 C 37.519531 185.835938 37.488281 186.46875 37.488281 187.101562 C 37.488281 187.734375 37.519531 188.367188 37.582031 188.996094 C 37.644531 189.625 37.738281 190.25 37.859375 190.871094 C 37.984375 191.492188 38.136719 192.105469 38.320312 192.710938 C 38.503906 193.316406 38.71875 193.914062 38.960938 194.496094 C 39.203125 195.082031 39.472656 195.652344 39.773438 196.210938 C 40.070312 196.769531 40.394531 197.3125 40.75 197.839844 C 41.101562 198.363281 41.476562 198.871094 41.878906 199.359375 C 42.28125 199.851562 42.707031 200.316406 43.152344 200.765625 L 174.140625 331.734375 C 174.589844 332.183594 175.054688 332.605469 175.546875 333.007812 C 176.035156 333.410156 176.542969 333.785156 177.066406 334.136719 C 177.59375 334.488281 178.136719 334.8125 178.695312 335.113281 C 179.25 335.410156 179.824219 335.679688 180.40625 335.921875 C 180.992188 336.164062 181.585938 336.378906 182.191406 336.5625 C 182.796875 336.746094 183.410156 336.898438 184.03125 337.023438 C 184.652344 337.144531 185.277344 337.238281 185.90625 337.300781 C 186.535156 337.363281 187.167969 337.394531 187.800781 337.394531 C 188.433594 337.394531 189.0625 337.363281 189.695312 337.300781 C 190.324219 337.238281 190.949219 337.144531 191.570312 337.023438 C 192.1875 336.898438 192.800781 336.746094 193.40625 336.5625 C 194.011719 336.378906 194.609375 336.164062 195.191406 335.921875 C 195.777344 335.679688 196.347656 335.410156 196.90625 335.113281 C 197.464844 334.8125 198.007812 334.488281 198.53125 334.136719 C 199.058594 333.785156 199.566406 333.410156 200.054688 333.007812 C 200.542969 332.605469 201.011719 332.183594 201.460938 331.734375 L 331.835938 201.5625 C 332.285156 201.113281 332.710938 200.648438 333.113281 200.15625 C 333.515625 199.667969 333.890625 199.160156 334.242188 198.636719 C 334.59375 198.109375 334.917969 197.566406 335.21875 197.007812 C 335.515625 196.449219 335.789062 195.878906 336.03125 195.292969 C 336.273438 194.710938 336.484375 194.113281 336.667969 193.507812 C 336.851562 192.902344 337.007812 192.289062 337.128906 191.667969 C 337.253906 191.046875 337.347656 190.421875 337.410156 189.792969 C 337.472656 189.164062 337.503906 188.53125 337.503906 187.898438 C 337.503906 187.265625 337.472656 186.632812 337.410156 186.003906 C 337.347656 185.375 337.253906 184.75 337.128906 184.128906 C 337.007812 183.507812 336.851562 182.894531 336.667969 182.289062 C 336.484375 181.683594 336.273438 181.085938 336.03125 180.503906 C 335.789062 179.917969 335.515625 179.347656 335.21875 178.789062 C 334.917969 178.230469 334.59375 177.6875 334.242188 177.160156 C 333.890625 176.636719 333.515625 176.128906 333.113281 175.640625 C 332.710938 175.148438 332.285156 174.683594 331.835938 174.234375 " fill-opacity="1" fill-rule="nonzero"/></g></svg>