<svg xmlns="http://www.w3.org/2000/svg" xmlns:xlink="http://www.w3.org/1999/xlink" width="500" zoomAndPan="magnify" viewBox="0 0 375 374.999991" height="500" preserveAspectRatio="xMidYMid meet" version="1.0"><path fill="#e65100" d="M 293.75 68.75 L 81.25 68.75 L 100 281.25 L 187.5 306.25 L 275 281.25 Z M 293.75 68.75 " fill-opacity="1" fill-rule="nonzero"/><path fill="#ff6d00" d="M 187.5 87.5 L 187.5 286.875 L 257.5 266.875 L 273.125 87.5 Z M 187.5 87.5 " fill-opacity="1" fill-rule="nonzero"/><path fill="#ffffff" d="M 187.5 193.75 L 187.5 168.75 L 241.25 168.75 L 236.875 240.625 L 187.5 256.875 L 187.5 230.625 L 213.125 221.875 L 215 193.75 Z M 243.125 143.75 L 245 118.75 L 187.5 118.75 L 187.5 143.75 Z M 243.125 143.75 " fill-opacity="1" fill-rule="nonzero"/><path fill="#eeeeee" d="M 187.5 230.625 L 187.5 256.875 L 138.125 240.625 L 135.625 206.25 L 160.625 206.25 L 161.875 221.875 Z M 156.875 143.75 L 187.5 143.75 L 187.5 118.75 L 130.625 118.75 L 135 193.75 L 187.5 193.75 L 187.5 168.75 L 158.75 168.75 Z M 156.875 143.75 " fill-opacity="1" fill-rule="nonzero"/></svg>