<svg xmlns="http://www.w3.org/2000/svg" xmlns:xlink="http://www.w3.org/1999/xlink" width="500" zoomAndPan="magnify" viewBox="0 0 375 374.999991" height="500" preserveAspectRatio="xMidYMid meet" version="1.0"><defs><clipPath id="feaaaea6ec"><path d="M 37.5 37.5 L 337.5 37.5 L 337.5 337.5 L 37.5 337.5 Z M 37.5 37.5 " clip-rule="nonzero"/></clipPath></defs><g clip-path="url(#feaaaea6ec)"><path fill="#ffd600" d="M 37.5 37.5 L 337.5 37.5 L 337.5 337.5 L 37.5 337.5 Z M 37.5 37.5 " fill-opacity="1" fill-rule="nonzero"/></g><path fill="#000001" d="M 233.648438 262.058594 C 239.417969 271.425781 245.683594 280.398438 258.957031 280.398438 C 270.109375 280.398438 275.957031 274.859375 275.957031 267.191406 C 275.957031 258.015625 269.910156 254.757812 257.640625 249.417969 L 250.917969 246.550781 C 231.507812 238.316406 218.601562 228 218.601562 206.207031 C 218.601562 186.125 233.976562 170.839844 258 170.839844 C 275.109375 170.839844 287.398438 176.765625 296.265625 192.285156 L 275.316406 205.675781 C 270.707031 197.441406 265.726562 194.199219 258 194.199219 C 250.117188 194.199219 245.125 199.175781 245.125 205.675781 C 245.125 213.707031 250.125 216.957031 261.667969 221.933594 L 268.390625 224.800781 C 291.265625 234.542969 304.167969 244.492188 304.167969 266.859375 C 304.167969 290.957031 285.132812 304.167969 259.582031 304.167969 C 234.589844 304.167969 220.398438 291.625 212.5 276.101562 Z M 137.101562 262.742188 C 141.316406 270.292969 147.726562 276.101562 156.941406 276.101562 C 165.757812 276.101562 170.832031 272.617188 170.832031 259.074219 L 170.832031 170.832031 L 198.609375 170.832031 L 198.609375 263.339844 C 198.609375 291.398438 182.332031 304.167969 158.566406 304.167969 C 137.089844 304.167969 121.589844 289.617188 115.273438 276.101562 Z M 137.101562 262.742188 " fill-opacity="1" fill-rule="nonzero"/></svg>