<svg xmlns="http://www.w3.org/2000/svg" xmlns:xlink="http://www.w3.org/1999/xlink" width="500" zoomAndPan="magnify" viewBox="0 0 375 374.999991" height="500" preserveAspectRatio="xMidYMid meet" version="1.0"><defs><clipPath id="d289905fc4"><path d="M 63 127.300781 L 90 127.300781 L 90 229 L 63 229 Z M 63 127.300781 " clip-rule="nonzero"/></clipPath><clipPath id="12a9f51def"><path d="M 37.5 127.300781 L 65 127.300781 L 65 230 L 37.5 230 Z M 37.5 127.300781 " clip-rule="nonzero"/></clipPath><clipPath id="ee1819305f"><path d="M 61 214 L 69 214 L 69 243.550781 L 61 243.550781 Z M 61 214 " clip-rule="nonzero"/></clipPath><clipPath id="68a9d67d00"><path d="M 268 181 L 337.5 181 L 337.5 217 L 268 217 Z M 268 181 " clip-rule="nonzero"/></clipPath></defs><g clip-path="url(#d289905fc4)"><path fill="#599636" d="M 63.414062 127.742188 L 66.5 133.570312 C 67.175781 134.621094 67.953125 135.59375 68.835938 136.480469 C 71.421875 139.074219 73.882812 141.792969 76.085938 144.707031 C 81.320312 151.605469 84.855469 159.265625 87.378906 167.558594 C 88.890625 172.621094 89.710938 177.8125 89.773438 183.0625 C 90.03125 198.757812 84.664062 212.238281 73.8125 223.441406 C 72.054688 225.222656 70.160156 226.847656 68.136719 228.316406 C 67.0625 228.316406 66.558594 227.464844 66.117188 226.734375 C 65.269531 225.3125 64.792969 223.757812 64.539062 222.179688 C 64.160156 220.28125 63.90625 218.382812 64.035156 216.417969 L 64.035156 215.53125 C 63.972656 215.339844 63.027344 128.1875 63.402344 127.746094 Z M 63.414062 127.742188 " fill-opacity="1" fill-rule="nonzero"/></g><g clip-path="url(#12a9f51def)"><path fill="#6cac48" d="M 63.414062 127.554688 C 63.285156 127.300781 63.15625 127.492188 63.03125 127.617188 C 63.09375 128.882812 62.652344 130.023438 61.957031 131.097656 C 61.199219 132.179688 60.1875 132.996094 59.179688 133.882812 C 53.566406 138.757812 49.152344 144.644531 45.617188 151.226562 C 40.949219 160.089844 38.488281 169.582031 37.796875 179.582031 C 37.484375 183.191406 38.929688 195.910156 40.070312 199.582031 C 43.15625 209.328125 48.710938 217.492188 55.933594 224.578125 C 57.699219 226.285156 59.59375 227.871094 61.546875 229.386719 C 62.113281 229.386719 62.179688 228.882812 62.304688 228.5 C 62.554688 227.691406 62.742188 226.867188 62.871094 226.03125 C 63.4375 222.867188 63.753906 219.703125 64.132812 216.539062 L 63.4375 127.554688 Z M 63.414062 127.554688 " fill-opacity="1" fill-rule="nonzero"/></g><g clip-path="url(#ee1819305f)"><path fill="#c2bfbf" d="M 66.507812 232.175781 C 66.636719 230.722656 67.359375 229.519531 68.085938 228.316406 C 67.328125 228.003906 66.761719 227.367188 66.320312 226.667969 C 65.9375 226.035156 65.625 225.246094 65.371094 224.578125 C 64.488281 221.921875 64.296875 219.136719 64.046875 216.414062 L 64.046875 214.765625 C 63.734375 215.023438 63.667969 217.171875 63.667969 217.488281 C 63.476562 220.398438 63.101562 223.25 62.535156 226.03125 C 62.34375 227.167969 62.222656 228.3125 61.527344 229.324219 C 61.527344 229.449219 61.527344 229.578125 61.585938 229.765625 C 62.722656 233.121094 63.039062 236.539062 63.230469 240.019531 L 63.230469 241.285156 C 63.230469 242.800781 63.167969 242.488281 64.429688 242.988281 C 64.933594 243.179688 65.503906 243.246094 66.007812 243.625 C 66.386719 243.625 66.449219 243.3125 66.449219 243.054688 L 66.257812 240.964844 L 66.257812 235.140625 C 66.195312 234.128906 66.386719 233.113281 66.515625 232.164062 Z M 66.507812 232.175781 " fill-opacity="1" fill-rule="nonzero"/></g><path fill="#47474a" d="M 114.410156 205.703125 L 114.410156 211.730469 C 114.40625 211.972656 114.417969 212.207031 114.453125 212.445312 C 114.53125 213.160156 114.96875 213.59375 115.609375 213.796875 C 116.207031 213.953125 116.816406 214.074219 117.429688 214.152344 C 117.789062 214.191406 117.90625 214.347656 117.945312 214.730469 C 117.988281 216.082031 117.867188 216.242188 116.5625 216.160156 C 113.519531 216 110.476562 215.960938 107.433594 216.160156 L 107.140625 216.160156 C 106.195312 216.199219 106.117188 216.121094 106.117188 215.167969 C 106.117188 215.007812 106.15625 214.8125 106.15625 214.652344 C 106.15625 214.359375 106.351562 214.214844 106.628906 214.214844 C 107.265625 214.136719 107.855469 213.976562 108.453125 213.859375 C 109.28125 213.660156 109.753906 213.144531 109.835938 212.3125 C 109.953125 211.402344 109.953125 210.449219 109.953125 209.535156 L 109.992188 198.90625 C 110.003906 198.59375 109.933594 198.300781 109.777344 198.027344 C 109.621094 197.753906 109.402344 197.542969 109.125 197.398438 C 108.40625 197 107.65625 196.679688 106.867188 196.445312 C 106.628906 196.367188 106.394531 196.332031 106.195312 196.207031 C 105.617188 195.929688 105.605469 195.417969 106.15625 195.097656 C 106.351562 194.980469 106.589844 194.898438 106.828125 194.859375 C 109.230469 194.503906 111.578125 193.910156 113.863281 193.074219 C 114.335938 192.914062 114.453125 192.957031 114.5 193.433594 C 114.539062 193.722656 114.5 194.070312 114.457031 194.34375 C 114.378906 194.859375 114.378906 195.375 114.378906 195.851562 C 114.378906 196.050781 114.421875 196.25 114.617188 196.367188 C 114.8125 196.488281 115.011719 196.367188 115.195312 196.253906 C 116.027344 195.613281 116.855469 195.023438 117.765625 194.511719 C 119.066406 193.796875 120.453125 193.160156 121.957031 192.964844 C 123.78125 192.726562 125.355469 193.203125 126.742188 194.390625 C 127.316406 194.910156 127.820312 195.488281 128.246094 196.136719 C 128.640625 196.714844 128.679688 196.730469 129.191406 196.332031 C 130.695312 195.222656 132.277344 194.234375 133.976562 193.519531 C 135.757812 192.765625 137.574219 192.648438 139.390625 193.28125 C 141.25 193.953125 142.515625 195.261719 143.269531 197.046875 C 143.90625 198.476562 144.175781 199.949219 144.175781 201.488281 L 144.175781 212.113281 C 144.175781 212.828125 144.464844 213.277344 145.167969 213.625 C 145.917969 213.914062 146.75 214.058594 147.539062 214.21875 C 148.054688 214.335938 148.054688 214.335938 148.054688 214.855469 C 147.976562 216.164062 147.855469 216.246094 146.589844 216.164062 C 143.414062 215.984375 140.238281 215.984375 137.0625 216.164062 C 136.425781 216.203125 136.425781 216.203125 136.394531 215.566406 L 136.394531 215.371094 C 136.351562 214.296875 136.351562 214.296875 137.382812 214.066406 L 138.410156 213.785156 C 138.765625 213.703125 139.0625 213.515625 139.289062 213.226562 C 139.519531 212.9375 139.632812 212.609375 139.636719 212.238281 L 139.75 209.265625 L 139.671875 201.492188 C 139.640625 200.792969 139.496094 200.121094 139.238281 199.472656 C 138.25 197.050781 136.078125 196.179688 133.980469 196.417969 C 132.398438 196.578125 131.015625 197.210938 129.710938 198.125 C 129.433594 198.320312 129.238281 198.558594 129.277344 198.957031 C 129.632812 201.496094 129.394531 204.035156 129.4375 206.570312 L 129.4375 212.085938 C 129.4375 213.078125 129.832031 213.554688 130.78125 213.792969 L 132.601562 214.191406 C 132.882812 214.230469 133.039062 214.347656 133.039062 214.664062 L 133.039062 214.957031 C 132.996094 216.066406 132.921875 216.117188 131.8125 216.105469 C 128.648438 215.945312 125.484375 215.988281 122.363281 216.105469 C 121.292969 216.144531 121.207031 216.027344 121.253906 214.945312 C 121.296875 214.304688 121.371094 214.269531 121.96875 214.152344 L 123.269531 213.914062 C 124.425781 213.675781 124.851562 213.242188 124.929688 212.011719 L 125.046875 209.351562 L 124.96875 201.378906 C 124.890625 200.386719 124.675781 199.4375 124.136719 198.523438 C 123.347656 197.054688 122.113281 196.304688 120.417969 196.222656 C 118.71875 196.105469 117.21875 196.738281 115.792969 197.53125 C 114.800781 198.109375 114.367188 198.796875 114.445312 199.949219 L 114.445312 205.738281 Z M 188.886719 205.945312 L 188.886719 211.539062 C 188.894531 211.933594 188.921875 212.332031 188.964844 212.726562 C 188.984375 212.996094 189.082031 213.234375 189.257812 213.441406 C 189.433594 213.648438 189.652344 213.78125 189.914062 213.839844 C 190.597656 214.039062 191.296875 214.15625 192.007812 214.195312 C 192.40625 214.234375 192.484375 214.394531 192.523438 214.710938 L 192.523438 214.992188 C 192.484375 216.378906 192.328125 216.539062 190.984375 216.460938 C 187.972656 216.261719 184.972656 216.300781 181.96875 216.460938 L 180.8125 216.5 C 180.574219 216.5 180.523438 216.382812 180.457031 216.222656 C 180.339844 215.664062 180.339844 215.109375 180.457031 214.554688 C 180.496094 214.316406 180.652344 214.265625 180.890625 214.199219 C 181.46875 214.121094 181.960938 214 182.511719 213.910156 C 183.5 213.671875 183.855469 213.269531 183.894531 212.242188 L 184.007812 208.910156 L 184.007812 199.15625 C 184.007812 198.441406 183.730469 198.003906 183.101562 197.6875 C 182.386719 197.289062 181.636719 197.011719 180.84375 196.734375 C 180.605469 196.65625 180.371094 196.574219 180.171875 196.457031 C 179.65625 196.097656 179.59375 195.585938 180.09375 195.1875 C 180.324219 194.996094 180.585938 194.890625 180.882812 194.867188 C 183.414062 194.46875 185.867188 193.917969 188.238281 192.964844 C 188.515625 192.847656 188.632812 192.925781 188.753906 193.160156 C 188.871094 193.398438 188.910156 193.679688 188.867188 193.953125 L 188.753906 195.816406 C 188.753906 196.054688 188.636719 196.398438 188.832031 196.492188 C 189.066406 196.648438 189.226562 196.292969 189.421875 196.199219 C 190.59375 195.214844 191.875 194.394531 193.257812 193.742188 C 194.484375 193.160156 195.746094 192.789062 197.171875 192.871094 C 199.824219 193.03125 201.71875 194.378906 202.945312 196.71875 C 203.578125 197.949219 203.851562 199.296875 203.96875 200.6875 L 204.085938 203.589844 L 204.125 212.351562 C 204.167969 213.027344 204.40625 213.464844 205.074219 213.703125 C 205.773438 213.933594 206.484375 214.105469 207.210938 214.21875 C 207.847656 214.296875 207.882812 214.417969 207.921875 215.011719 L 207.921875 215.207031 C 207.84375 216.558594 207.761719 216.59375 206.417969 216.515625 C 203.464844 216.355469 200.515625 216.355469 197.5625 216.515625 C 197.167969 216.554688 196.773438 216.515625 196.40625 216.554688 C 196.167969 216.554688 196.011719 216.515625 195.972656 216.277344 C 195.894531 215.757812 195.8125 215.246094 195.933594 214.6875 C 195.972656 214.449219 196.089844 214.332031 196.367188 214.292969 L 198.1875 214 C 198.824219 213.839844 199.175781 213.421875 199.257812 212.839844 L 199.335938 211.730469 L 199.296875 203.441406 C 199.296875 202.488281 199.253906 201.535156 199.058594 200.585938 C 198.585938 198.554688 197.042969 197.101562 194.953125 196.898438 C 193.128906 196.703125 191.480469 197.179688 189.96875 198.167969 C 189.21875 198.644531 188.898438 199.316406 188.898438 200.148438 L 188.898438 206.140625 C 188.898438 206.023438 188.898438 206.023438 188.941406 206.023438 Z M 188.886719 205.945312 " fill-opacity="1" fill-rule="nonzero"/><g clip-path="url(#68a9d67d00)"><path fill="#c2bfbf" d="M 304.660156 194.71875 C 304.226562 191.824219 303.15625 189.246094 301.300781 186.988281 C 299.65625 184.957031 297.625 183.449219 295.210938 182.464844 C 292.722656 181.433594 290.070312 181.117188 287.382812 181.039062 C 286.273438 180.996094 271.175781 181.234375 270.066406 181.039062 C 269.789062 180.996094 269.59375 181.078125 269.429688 181.316406 C 269.234375 181.605469 269.035156 181.910156 268.914062 182.226562 C 268.441406 183.300781 268.441406 183.21875 269.585938 183.375 C 270.535156 183.535156 271.445312 183.613281 272.355469 183.894531 C 273.183594 184.171875 273.777344 184.648438 273.976562 185.558594 C 274.054688 185.992188 274.132812 199.953125 274.132812 206.457031 L 273.976562 211.101562 C 273.933594 211.457031 273.898438 211.816406 273.777344 212.132812 C 273.621094 212.609375 273.34375 213.003906 272.871094 213.207031 C 272.34375 213.453125 271.789062 213.597656 271.210938 213.640625 C 270.140625 213.757812 269.984375 213.800781 269.628906 214.992188 L 269.511719 215.425781 C 269.433594 215.941406 269.472656 216.019531 269.984375 216.019531 L 281.804688 216.136719 L 286.433594 216.058594 L 289.636719 215.660156 C 293.273438 214.988281 296.515625 213.480469 299.28125 211.0625 C 300.875 209.648438 302.140625 207.980469 303.074219 206.0625 C 304.183594 203.84375 304.65625 201.421875 304.777344 198.964844 C 304.972656 197.578125 304.890625 196.152344 304.660156 194.722656 Z M 298.925781 200.351562 C 298.769531 202.890625 298.257812 205.347656 296.953125 207.566406 C 295.289062 210.464844 292.917969 212.484375 289.640625 213.195312 C 288.214844 213.488281 286.792969 213.632812 285.300781 213.433594 C 284.230469 213.320312 283.207031 213.195312 282.214844 212.839844 C 280.4375 212.203125 279.804688 211.097656 279.765625 209.359375 L 279.726562 185.445312 C 279.726562 184.019531 280.363281 183.703125 281.386719 183.660156 C 282.929688 183.542969 284.511719 183.582031 286.050781 183.738281 C 287.703125 183.898438 289.296875 184.285156 290.835938 184.898438 C 291.980469 185.378906 293.023438 186.027344 293.960938 186.84375 C 296.09375 188.671875 297.519531 190.964844 298.300781 193.664062 C 298.9375 195.847656 299.050781 198.066406 298.9375 200.285156 Z M 337.515625 204.238281 C 337.515625 204 337.515625 203.804688 337.472656 203.566406 C 337.117188 201.382812 335.96875 199.71875 334.195312 198.449219 C 333.046875 197.617188 331.742188 197.0625 330.398438 196.664062 C 330.160156 196.585938 329.964844 196.503906 329.726562 196.46875 C 329.769531 196.269531 329.886719 196.230469 330.003906 196.1875 C 330.796875 195.792969 331.546875 195.355469 332.21875 194.761719 C 333.445312 193.730469 334.242188 192.460938 334.667969 190.914062 C 334.90625 190.078125 334.90625 189.246094 334.828125 188.375 C 334.761719 187.339844 334.476562 186.367188 333.96875 185.464844 C 333.464844 184.5625 332.789062 183.8125 331.941406 183.214844 C 330.117188 181.867188 327.988281 181.3125 325.773438 181.273438 C 321.503906 181.195312 317.195312 181.273438 312.929688 181.273438 C 311.703125 181.273438 310.480469 181.351562 309.214844 181.15625 C 308.976562 181.117188 308.632812 181.039062 308.460938 181.316406 C 308.171875 181.832031 307.824219 182.347656 307.707031 182.941406 C 307.667969 183.21875 307.75 183.375 308.066406 183.417969 L 310.792969 183.816406 C 311.863281 183.972656 312.613281 184.570312 312.691406 185.519531 C 312.769531 186.179688 312.804688 186.839844 312.804688 187.503906 L 312.726562 194.917969 L 312.6875 209.589844 C 312.6875 210.460938 312.570312 211.296875 312.410156 212.167969 C 312.371094 212.449219 312.257812 212.699219 312.070312 212.914062 C 311.886719 213.128906 311.65625 213.277344 311.382812 213.355469 C 310.59375 213.59375 309.839844 213.832031 309.011719 213.832031 C 308.78125 213.8125 308.570312 213.863281 308.378906 213.988281 C 308.1875 214.113281 308.054688 214.289062 307.984375 214.507812 C 307.824219 214.863281 307.695312 215.261719 307.628906 215.617188 C 307.550781 216.09375 307.667969 216.257812 308.144531 216.199219 C 308.5 216.15625 321.542969 216.476562 323.996094 216.238281 C 325.457031 216.078125 326.886719 215.882812 328.34375 215.445312 C 330.828125 214.652344 333.125 213.5 334.941406 211.558594 C 336.449219 209.96875 337.316406 208.066406 337.394531 205.847656 C 337.507812 205.328125 337.507812 204.816406 337.507812 204.257812 Z M 318.34375 187.988281 L 318.457031 184.816406 C 318.457031 184.222656 318.695312 183.945312 319.289062 183.824219 C 320.238281 183.625 321.1875 183.707031 322.132812 183.746094 C 323.082031 183.824219 323.992188 183.941406 324.941406 184.222656 C 326.675781 184.738281 328.023438 185.730469 328.816406 187.394531 C 329.179688 188.15625 329.363281 188.964844 329.367188 189.8125 C 329.410156 190.925781 329.328125 191.996094 328.894531 193.0625 C 328.222656 194.53125 327.160156 195.484375 325.613281 195.761719 C 324.070312 196.039062 319.683594 195.921875 319.011719 195.921875 C 318.421875 195.921875 318.378906 195.84375 318.378906 195.25 L 318.378906 191.511719 C 318.285156 190.351562 318.269531 189.1875 318.335938 188.023438 Z M 331.1875 209.324219 C 330.515625 211.109375 329.289062 212.339844 327.550781 213.007812 C 326.601562 213.367188 325.652344 213.589844 324.65625 213.523438 C 323.429688 213.484375 322.207031 213.523438 320.984375 213.289062 C 319.324219 212.929688 318.570312 211.34375 318.453125 210.195312 C 318.253906 208.171875 318.375 206.109375 318.335938 204.601562 L 318.335938 199.367188 C 318.335938 198.726562 318.414062 198.535156 319.089844 198.535156 L 322.804688 198.574219 L 325.335938 198.863281 C 327.117188 199.261719 328.734375 199.9375 330.003906 201.320312 C 331.03125 202.433594 331.585938 203.78125 331.703125 205.25 C 331.820312 206.636719 331.742188 207.984375 331.230469 209.292969 Z M 331.1875 209.324219 " fill-opacity="1" fill-rule="nonzero"/></g><path fill="#47474a" d="M 230.753906 197.375 L 231.78125 197.535156 C 232.886719 197.574219 234.191406 197.179688 234.585938 195.632812 C 234.808594 194.875 234.808594 194.121094 234.585938 193.367188 C 234.347656 193.367188 234.230469 193.566406 234.113281 193.644531 C 233.519531 194.121094 232.847656 194.402344 232.136719 194.480469 C 230.710938 194.640625 229.289062 194.558594 227.90625 194.042969 L 225.96875 193.371094 C 224.605469 192.921875 223.207031 192.738281 221.773438 192.820312 C 219.757812 192.980469 217.859375 193.652344 216.082031 194.605469 C 214.183594 195.632812 212.84375 197.179688 212.207031 199.285156 C 211.851562 200.515625 211.808594 201.78125 211.96875 203.050781 C 212.363281 205.949219 213.867188 207.972656 216.554688 209.042969 C 216.710938 209.082031 216.832031 209.15625 216.988281 209.199219 C 217.34375 209.398438 217.382812 209.597656 217.066406 209.875 L 216.074219 210.546875 L 213.703125 212.015625 C 213.109375 212.375 213.03125 212.65625 213.230469 213.285156 C 213.46875 214.039062 213.890625 214.675781 214.492188 215.1875 C 215.039062 215.65625 215.644531 216.027344 216.3125 216.300781 C 216.746094 216.496094 216.746094 216.589844 216.355469 216.9375 L 214.097656 218.5625 C 213.34375 219.144531 212.59375 219.722656 211.960938 220.464844 C 211.515625 220.945312 211.210938 221.5 211.042969 222.132812 C 210.875 222.765625 210.863281 223.398438 211.015625 224.035156 C 211.316406 225.449219 212 226.636719 213.066406 227.605469 C 214.113281 228.574219 215.324219 229.238281 216.703125 229.585938 C 218.917969 230.226562 221.210938 230.261719 223.464844 229.824219 C 226.703125 229.230469 229.539062 227.792969 231.765625 225.34375 C 233.308594 223.71875 234.214844 221.816406 234.296875 219.539062 C 234.339844 218.882812 234.269531 218.238281 234.082031 217.605469 C 233.898438 216.972656 233.609375 216.390625 233.21875 215.859375 C 232.828125 215.332031 232.359375 214.886719 231.808594 214.523438 C 231.261719 214.160156 230.667969 213.902344 230.027344 213.75 L 227.890625 213.355469 L 221.371094 212.773438 C 220.65625 212.734375 219.945312 212.613281 219.355469 212.257812 C 218.601562 211.78125 218.40625 210.871094 218.878906 210.273438 C 219.234375 209.839844 219.667969 209.5625 220.222656 209.519531 L 221.488281 209.40625 C 222.738281 209.277344 223.933594 208.953125 225.078125 208.429688 C 226.222656 207.90625 227.25 207.214844 228.167969 206.351562 C 229.167969 205.425781 229.839844 204.300781 230.183594 202.980469 C 230.65625 201.273438 230.65625 199.496094 230.261719 197.753906 C 230.144531 197.320312 230.183594 197.28125 230.734375 197.359375 Z M 221.0625 217.128906 C 221.300781 217.171875 221.539062 217.128906 221.773438 217.128906 C 223.433594 217.207031 225.136719 217.328125 226.753906 217.769531 C 227.285156 217.925781 227.800781 218.125 228.296875 218.363281 C 229.878906 219.234375 230.472656 220.742188 230.273438 222.367188 C 230.035156 224.152344 229.046875 225.421875 227.503906 226.257812 C 226.476562 226.835938 225.328125 227.089844 224.144531 227.207031 C 223.710938 227.25 223.3125 227.207031 222.878906 227.207031 C 221.496094 227.25 220.152344 227.09375 218.847656 226.535156 C 217.9375 226.179688 217.1875 225.664062 216.515625 224.949219 C 215.132812 223.558594 214.492188 221.019531 216.554688 218.957031 C 217.820312 217.796875 219.246094 216.976562 221.0625 217.128906 Z M 225.570312 204.753906 C 224.738281 206.855469 222.921875 207.492188 221.105469 207.214844 C 219.441406 206.976562 218.214844 206.0625 217.429688 204.554688 C 216.402344 202.53125 216.128906 200.433594 216.71875 198.25 C 217.152344 196.625 218.140625 195.394531 219.878906 195.113281 C 222.09375 194.71875 224.21875 195.511719 225.335938 197.734375 C 225.914062 198.804688 226.164062 200.113281 226.164062 201.976562 C 226.125 202.730469 225.96875 203.761719 225.574219 204.753906 Z M 175.765625 202.054688 C 175.410156 199.914062 174.617188 197.96875 173.15625 196.34375 C 170.980469 193.925781 168.214844 192.863281 165.089844 192.855469 C 162.363281 192.8125 159.796875 193.609375 157.5 195.035156 C 156.371094 195.714844 155.40625 196.578125 154.609375 197.625 C 153.808594 198.675781 153.230469 199.832031 152.875 201.105469 C 152.203125 203.40625 152.238281 205.746094 152.757812 208.082031 C 154.140625 214.351562 158.96875 217.046875 164.734375 216.652344 C 166.4375 216.535156 168.054688 215.976562 169.59375 215.222656 C 171.886719 214.148438 173.546875 212.445312 174.695312 210.183594 C 175.601562 208.320312 175.996094 206.335938 175.957031 204.078125 L 175.761719 202.054688 Z M 170.152344 210.859375 C 170.011719 211.308594 169.808594 211.722656 169.546875 212.109375 C 169.285156 212.5 168.972656 212.839844 168.609375 213.136719 C 168.25 213.429688 167.851562 213.667969 167.421875 213.847656 C 166.992188 214.027344 166.542969 214.144531 166.078125 214.191406 C 164.34375 214.429688 162.71875 213.996094 161.257812 212.960938 C 160.1875 212.171875 159.359375 211.179688 158.765625 209.988281 C 157.148438 206.65625 156.871094 203.167969 157.695312 199.597656 C 157.96875 198.46875 158.523438 197.503906 159.355469 196.703125 C 160.820312 195.351562 162.519531 195.035156 164.417969 195.433594 C 166.242188 195.832031 167.621094 196.820312 168.757812 198.332031 C 169.894531 199.839844 170.417969 201.582031 170.734375 203.410156 C 170.894531 204.320312 170.894531 205.273438 170.929688 205.867188 C 170.929688 207.769531 170.773438 209.347656 170.179688 210.863281 Z M 262.136719 202.375 C 261.847656 200.074219 260.992188 197.972656 259.371094 196.230469 C 257.234375 193.890625 254.46875 192.898438 251.386719 192.855469 C 248.738281 192.816406 246.285156 193.570312 244.035156 194.878906 C 241.503906 196.390625 239.765625 198.527344 239.09375 201.425781 C 238.691406 203.003906 238.574219 204.605469 238.738281 206.226562 C 238.898438 207.847656 239.335938 209.394531 240.042969 210.859375 C 241.34375 213.636719 243.558594 215.421875 246.488281 216.214844 C 249.726562 217.085938 252.8125 216.691406 255.816406 215.222656 C 258.425781 213.953125 260.28125 211.972656 261.347656 209.273438 C 261.984375 207.6875 262.214844 205.984375 262.257812 203.996094 C 262.296875 203.640625 262.214844 203.003906 262.140625 202.371094 Z M 256.683594 210.347656 C 256.046875 212.488281 254.707031 213.875 252.453125 214.195312 C 250.792969 214.433594 249.214844 214.035156 247.789062 213.085938 C 246.5625 212.25 245.695312 211.140625 245.058594 209.832031 C 244.347656 208.445312 243.953125 206.976562 243.796875 205.472656 C 243.558594 203.609375 243.558594 201.785156 243.992188 199.921875 C 244.074219 199.550781 244.195312 199.195312 244.347656 198.851562 C 245.457031 196.074219 247.90625 194.804688 250.792969 195.441406 C 252.730469 195.875 254.191406 196.949219 255.300781 198.574219 C 256.371094 200.160156 256.882812 201.90625 257.121094 203.796875 C 257.238281 204.550781 257.28125 205.34375 257.238281 206.019531 C 257.238281 207.566406 257.121094 208.992188 256.660156 210.378906 Z M 256.683594 210.347656 " fill-opacity="1" fill-rule="nonzero"/></svg>