<svg xmlns="http://www.w3.org/2000/svg" xmlns:xlink="http://www.w3.org/1999/xlink" width="500" zoomAndPan="magnify" viewBox="0 0 375 374.999991" height="500" preserveAspectRatio="xMidYMid meet" version="1.0"><defs><clipPath id="042b44ff95"><path d="M 113 171 L 308 171 L 308 246.75 L 113 246.75 Z M 113 171 " clip-rule="nonzero"/></clipPath><clipPath id="f56a988c76"><path d="M 193 128.25 L 262 128.25 L 262 246.75 L 193 246.75 Z M 193 128.25 " clip-rule="nonzero"/></clipPath><clipPath id="f7e231c9f9"><path d="M 113 171 L 182 171 L 182 246.75 L 113 246.75 Z M 113 171 " clip-rule="nonzero"/></clipPath><clipPath id="27b7bbffea"><path d="M 38 171 L 337 171 L 337 246.75 L 38 246.75 Z M 38 171 " clip-rule="nonzero"/></clipPath></defs><g clip-path="url(#042b44ff95)"><path fill="#388e3c" d="M 145.335938 172.4375 L 114.890625 189.28125 C 113.75 189.90625 113.050781 191.074219 113.050781 192.332031 L 113.050781 226.039062 C 113.050781 227.300781 113.75 228.460938 114.890625 229.09375 L 145.34375 245.949219 C 146.476562 246.578125 147.886719 246.578125 149.023438 245.949219 L 179.464844 229.09375 C 180.59375 228.460938 181.296875 227.300781 181.296875 226.039062 L 181.296875 192.332031 C 181.296875 191.074219 180.59375 189.914062 179.453125 189.28125 L 149.015625 172.4375 C 148.445312 172.121094 147.804688 171.964844 147.171875 171.964844 C 146.535156 171.964844 145.902344 172.121094 145.332031 172.4375 M 301.972656 202.78125 L 296.898438 205.585938 C 296.707031 205.691406 296.59375 205.882812 296.59375 206.09375 L 296.59375 211.714844 C 296.59375 211.925781 296.710938 212.117188 296.898438 212.222656 L 301.972656 215.035156 C 302.164062 215.140625 302.394531 215.140625 302.585938 215.035156 L 307.664062 212.222656 C 307.847656 212.117188 307.964844 211.925781 307.964844 211.714844 L 307.964844 206.09375 C 307.964844 205.882812 307.847656 205.691406 307.65625 205.585938 L 302.582031 202.78125 C 302.488281 202.726562 302.382812 202.699219 302.277344 202.699219 C 302.171875 202.699219 302.066406 202.726562 301.972656 202.78125 " fill-opacity="1" fill-rule="nonzero"/></g><g clip-path="url(#f56a988c76)"><path fill="#37474f" d="M 260.40625 136.710938 L 245.582031 128.441406 C 245.117188 128.183594 244.546875 128.1875 244.089844 128.460938 C 243.628906 128.734375 243.34375 129.222656 243.34375 129.757812 L 243.335938 179.714844 L 229.667969 172.152344 C 229.097656 171.835938 228.460938 171.679688 227.828125 171.679688 C 227.195312 171.679688 226.554688 171.835938 225.984375 172.152344 L 225.992188 172.152344 L 195.546875 188.996094 C 194.40625 189.621094 193.703125 190.789062 193.703125 192.042969 L 193.703125 225.75 C 193.703125 227.007812 194.40625 228.167969 195.546875 228.800781 L 225.996094 245.65625 C 227.132812 246.285156 228.539062 246.285156 229.675781 245.65625 L 260.121094 228.800781 C 261.25 228.175781 261.949219 227.007812 261.949219 225.75 L 261.949219 139.34375 C 261.949219 138.25 261.355469 137.246094 260.40625 136.710938 Z M 242.507812 217.949219 L 228.671875 225.613281 C 228.15625 225.898438 227.515625 225.898438 227.003906 225.613281 L 213.160156 217.949219 C 212.632812 217.664062 212.316406 217.132812 212.316406 216.558594 L 212.316406 201.234375 C 212.316406 200.664062 212.632812 200.136719 213.15625 199.847656 L 226.996094 192.191406 L 226.988281 192.191406 C 227.25 192.046875 227.535156 191.980469 227.828125 191.980469 C 228.117188 191.980469 228.402344 192.054688 228.664062 192.191406 L 242.5 199.847656 C 243.019531 200.136719 243.335938 200.671875 243.335938 201.242188 L 243.335938 216.566406 C 243.335938 217.132812 243.019531 217.664062 242.507812 217.949219 Z M 242.507812 217.949219 " fill-opacity="1" fill-rule="nonzero"/></g><g clip-path="url(#f7e231c9f9)"><path fill="#2e7d32" d="M 145.335938 172.4375 L 113.050781 226.039062 C 113.050781 227.300781 113.75 228.460938 114.890625 229.09375 L 145.34375 245.949219 C 146.476562 246.578125 147.886719 246.578125 149.023438 245.949219 L 181.296875 192.332031 C 181.296875 191.074219 180.59375 189.914062 179.453125 189.28125 L 149.015625 172.4375 C 148.445312 172.121094 147.804688 171.964844 147.171875 171.964844 C 146.535156 171.964844 145.902344 172.121094 145.332031 172.4375 " fill-opacity="1" fill-rule="nonzero"/><path fill="#4caf50" d="M 145.335938 172.4375 L 114.890625 189.28125 C 113.75 189.90625 113.050781 191.074219 113.050781 192.332031 L 145.335938 245.949219 C 146.472656 246.578125 147.878906 246.578125 149.015625 245.949219 L 179.460938 229.09375 C 180.59375 228.460938 181.296875 227.300781 181.296875 226.039062 L 149.015625 172.4375 C 148.445312 172.121094 147.804688 171.964844 147.171875 171.964844 C 146.535156 171.964844 145.902344 172.121094 145.332031 172.4375 " fill-opacity="1" fill-rule="nonzero"/></g><g clip-path="url(#27b7bbffea)"><path fill="#37474f" d="M 334.558594 188.996094 L 304.121094 172.152344 C 303.550781 171.835938 302.910156 171.679688 302.277344 171.679688 C 301.644531 171.679688 301.003906 171.835938 300.433594 172.152344 L 300.441406 172.152344 L 269.996094 188.996094 C 268.863281 189.621094 268.15625 190.8125 268.15625 192.117188 L 268.15625 225.6875 C 268.15625 226.984375 268.863281 228.179688 269.996094 228.808594 L 300.445312 245.664062 C 301.589844 246.296875 302.984375 246.296875 304.125 245.664062 L 318.167969 237.890625 C 319.449219 237.175781 319.445312 235.335938 318.152344 234.628906 L 287.605469 217.957031 C 287.089844 217.664062 286.765625 217.125 286.765625 216.542969 L 286.765625 201.242188 C 286.765625 200.671875 287.078125 200.144531 287.574219 199.871094 L 301.441406 192.203125 L 301.433594 192.203125 C 301.695312 192.058594 301.980469 191.992188 302.269531 191.992188 C 302.5625 191.992188 302.847656 192.066406 303.109375 192.203125 L 316.976562 199.878906 C 317.472656 200.148438 317.78125 200.675781 317.78125 201.25 L 317.78125 213.730469 C 317.78125 214.265625 318.066406 214.761719 318.53125 215.027344 C 318.996094 215.289062 319.570312 215.289062 320.035156 215.023438 L 334.910156 206.378906 C 335.828125 205.847656 336.402344 204.859375 336.402344 203.792969 L 336.402344 192.128906 C 336.402344 190.820312 335.691406 189.621094 334.558594 188.996094 Z M 105.003906 188.996094 L 74.566406 172.152344 C 73.996094 171.835938 73.355469 171.679688 72.722656 171.679688 C 72.089844 171.679688 71.449219 171.835938 70.878906 172.152344 L 70.886719 172.152344 L 40.441406 188.996094 C 39.308594 189.621094 38.597656 190.8125 38.597656 192.117188 L 38.597656 238.429688 C 38.597656 238.964844 38.886719 239.460938 39.351562 239.726562 C 39.816406 239.988281 40.386719 239.988281 40.851562 239.71875 L 55.730469 231.078125 C 56.648438 230.542969 57.210938 229.558594 57.210938 228.492188 L 57.210938 201.234375 C 57.210938 200.664062 57.523438 200.136719 58.019531 199.863281 L 71.886719 192.195312 C 72.144531 192.054688 72.429688 191.984375 72.722656 191.984375 C 73.015625 191.984375 73.300781 192.058594 73.558594 192.195312 L 87.425781 199.871094 C 87.921875 200.144531 88.234375 200.671875 88.234375 201.242188 L 88.234375 228.496094 C 88.234375 229.5625 88.796875 230.550781 89.722656 231.085938 L 104.601562 239.726562 C 105.066406 239.992188 105.636719 239.992188 106.101562 239.734375 C 106.558594 239.460938 106.84375 238.964844 106.84375 238.429688 L 106.84375 192.121094 C 106.84375 190.820312 106.136719 189.621094 105.003906 188.996094 Z M 105.003906 188.996094 " fill-opacity="1" fill-rule="nonzero"/></g></svg>