<svg xmlns="http://www.w3.org/2000/svg" xmlns:xlink="http://www.w3.org/1999/xlink" width="500" zoomAndPan="magnify" viewBox="0 0 375 374.999991" height="500" preserveAspectRatio="xMidYMid meet" version="1.0"><defs><clipPath id="c433632bb7"><path d="M 39 37.5 L 327 37.5 L 327 337.5 L 39 337.5 Z M 39 37.5 " clip-rule="nonzero"/></clipPath></defs><g clip-path="url(#c433632bb7)"><path fill="#ffffff" d="M 326.476562 220.160156 C 325.226562 214.507812 320.101562 207.914062 309.757812 207.914062 C 307.644531 207.914062 305.332031 208.179688 302.699219 208.726562 C 297.871094 209.71875 293.761719 210.203125 290.140625 210.367188 C 318.320312 162.367188 336.613281 95.691406 318.496094 72.546875 C 294.628906 42.046875 262.492188 37.492188 245.46875 37.492188 L 243.867188 37.5 C 237.53125 37.601562 230.960938 38.378906 224.34375 39.8125 L 199.914062 45.089844 C 196.589844 44.671875 193.199219 44.378906 189.667969 44.316406 L 189.355469 44.316406 L 188.316406 44.3125 C 177.457031 44.3125 167.550781 46.617188 158.71875 50.945312 L 150.191406 47.585938 C 138.464844 42.960938 120.816406 37.460938 103.363281 37.460938 C 102.382812 37.460938 101.40625 37.480469 100.425781 37.511719 C 83.230469 38.132812 68.460938 44.660156 57.710938 56.378906 C 44.289062 71.011719 38.183594 92.414062 39.566406 120 C 39.632812 121.425781 56.324219 262.5 103.636719 262.5 L 103.808594 262.5 L 104.242188 262.492188 C 110.386719 262.34375 116.242188 259.875 121.71875 255.148438 C 125.898438 258.285156 131.304688 260.140625 136.34375 260.878906 C 139.671875 261.660156 145.65625 262.773438 152.828125 262.773438 C 161.585938 262.773438 169.480469 260.980469 176.285156 257.742188 C 176.277344 263.742188 176.242188 271.335938 176.175781 281.046875 L 176.167969 281.558594 L 176.203125 282.066406 C 176.863281 291.742188 178.535156 300.464844 181.050781 307.300781 C 188.214844 326.796875 200.589844 337.535156 215.898438 337.535156 C 216.53125 337.535156 217.179688 337.511719 217.835938 337.472656 C 230.421875 336.695312 243.175781 329.625 251.953125 318.574219 C 261.449219 306.605469 263.644531 293.980469 264.492188 284.304688 L 264.546875 283.710938 L 264.546875 255.300781 L 265.246094 255.367188 L 268.21875 255.628906 L 268.507812 255.65625 L 268.792969 255.667969 C 269.636719 255.710938 270.511719 255.722656 271.390625 255.722656 C 281.664062 255.722656 294.3125 253.058594 302.863281 249.082031 C 311.039062 245.289062 329.71875 234.871094 326.476562 220.160156 Z M 326.476562 220.160156 " fill-opacity="1" fill-rule="nonzero"/></g><path fill="#0277bd" d="M 250.910156 248.863281 C 250.910156 247.464844 250.992188 246.300781 251.03125 245.011719 C 250.964844 243.300781 250.910156 242.046875 250.910156 242.046875 C 250.910156 242.046875 250.992188 241.984375 251.128906 241.894531 C 252.144531 223.671875 257.167969 216.648438 262.546875 212.644531 C 261.796875 211.601562 260.933594 210.476562 260.121094 209.40625 C 257.851562 206.425781 255.019531 202.730469 251.992188 197.992188 L 251.433594 196.914062 C 250.976562 195.796875 249.871094 193.867188 248.46875 191.332031 C 240.402344 176.742188 223.617188 146.386719 235.105469 127.214844 C 240.136719 118.8125 249.574219 113.972656 263.203125 112.78125 C 257.632812 96.941406 236.761719 58.738281 189.441406 57.953125 C 189.429688 57.953125 189.414062 57.953125 189.402344 57.953125 C 148.214844 57.285156 134.679688 94.71875 130.273438 117.082031 C 136.34375 114.511719 143.269531 112.949219 149.613281 112.949219 C 149.707031 112.949219 149.808594 112.949219 149.90625 112.949219 C 165.519531 113.066406 176.257812 121.398438 179.378906 135.816406 C 181.664062 146.398438 182.761719 155.660156 182.734375 164.132812 C 182.664062 182.671875 178.929688 192.421875 175.628906 201.027344 L 174.578125 203.808594 C 173.734375 206.085938 172.839844 208.207031 171.996094 210.199219 C 171.136719 212.230469 170.378906 214.035156 169.828125 215.664062 C 173.128906 216.414062 175.71875 217.472656 177.496094 218.257812 L 178.527344 218.707031 C 178.847656 218.84375 179.167969 219 179.460938 219.175781 C 185.242188 222.695312 188.84375 228.101562 189.613281 234.402344 C 190.03125 237.796875 189.960938 260.945312 189.816406 281.140625 C 190.410156 289.902344 191.898438 297.257812 193.863281 302.589844 C 196.648438 310.1875 203.617188 324.6875 217.003906 323.855469 C 226.34375 323.277344 235.324219 317.589844 241.28125 310.089844 C 247.675781 302.039062 250.035156 293.132812 250.921875 283.105469 L 250.921875 248.863281 Z M 250.910156 248.863281 " fill-opacity="1" fill-rule="nonzero"/><path fill="#0277bd" d="M 128.960938 214.207031 C 117.960938 202.730469 112.601562 187.296875 114.613281 172.914062 C 116.558594 159.039062 115.460938 145.460938 114.867188 138.15625 C 114.667969 135.722656 114.539062 133.910156 114.546875 132.90625 C 114.546875 132.851562 114.558594 132.804688 114.566406 132.75 C 114.566406 132.722656 114.550781 132.703125 114.550781 132.675781 C 115.378906 112.078125 123.320312 79.582031 145.1875 60.265625 C 134.535156 56.074219 117.191406 50.542969 100.910156 51.136719 C 75.394531 52.0625 50.699219 69.710938 53.183594 119.316406 C 54.117188 137.933594 75.148438 249.566406 103.910156 248.863281 C 108.019531 248.761719 112.289062 246.121094 116.671875 240.84375 C 123.605469 232.507812 130.34375 224.945312 135.136719 219.683594 C 132.988281 218.050781 130.914062 216.253906 128.960938 214.207031 Z M 278.339844 117.484375 C 278.441406 118.535156 278.351562 119.433594 278.1875 120.265625 C 278.398438 126.539062 277.726562 132.628906 277.035156 138.519531 C 276.53125 142.855469 276.011719 147.335938 275.871094 151.828125 C 275.726562 156.226562 276.347656 160.566406 277.003906 165.164062 C 278.535156 175.921875 280.132812 188.066406 271.785156 202.234375 C 273.320312 204.253906 274.671875 206.128906 275.746094 207.941406 C 307.179688 156.976562 319.847656 96.386719 307.757812 80.945312 C 289.464844 57.574219 264.144531 50.808594 244.085938 51.136719 C 237.804688 51.238281 232.097656 52.085938 227.222656 53.140625 C 261.832031 69.914062 277.246094 105.859375 278.339844 117.484375 Z M 305.453125 222.074219 C 287.285156 225.824219 278.542969 223.828125 274.300781 221.214844 C 273.621094 221.707031 272.9375 222.121094 272.304688 222.511719 C 269.769531 224.046875 265.753906 226.488281 264.769531 241.480469 C 265.335938 241.589844 265.835938 241.648438 266.449219 241.78125 L 269.414062 242.046875 C 278.414062 242.453125 290.203125 239.933594 297.117188 236.71875 C 312.011719 229.808594 320.132812 219.046875 305.453125 222.074219 Z M 176.066406 236.039062 C 175.8125 234.007812 174.714844 232.363281 172.710938 231.046875 L 171.976562 230.726562 C 169.511719 229.644531 166.726562 228.410156 162.273438 228.410156 L 162.246094 228.410156 C 161.378906 228.476562 160.519531 228.539062 159.65625 228.539062 C 159.300781 228.539062 158.953125 228.492188 158.597656 228.476562 C 155.367188 230.964844 150.769531 232.886719 139.398438 235.226562 C 119.078125 240.402344 131.074219 246.511719 138.867188 247.460938 C 146.40625 249.347656 164.332031 251.644531 176.238281 241.941406 C 176.203125 238.886719 176.148438 236.789062 176.066406 236.039062 Z M 176.066406 236.039062 " fill-opacity="1" fill-rule="nonzero"/><path fill="#0277bd" d="M 166.914062 143.1875 C 164.925781 145.246094 161.78125 147.046875 158.3125 146.488281 C 152.664062 145.574219 148.335938 138.761719 148.648438 136.207031 C 148.949219 133.65625 153.769531 132.328125 159.410156 133.242188 C 161.367188 133.5625 163.144531 134.113281 164.644531 134.796875 C 162.464844 130.105469 158.515625 127.398438 152.496094 126.738281 C 141.824219 125.550781 130.5 131.128906 128.222656 134.214844 C 128.269531 134.964844 128.359375 135.925781 128.449219 137.058594 C 129.082031 144.878906 130.253906 159.449219 128.105469 174.8125 C 126.6875 184.9375 130.785156 196.417969 138.789062 204.777344 C 143.953125 210.164062 149.980469 213.574219 155.925781 214.582031 C 156.683594 211.324219 158.03125 208.144531 159.421875 204.867188 C 160.191406 203.058594 161.011719 201.136719 161.78125 199.058594 L 162.886719 196.144531 C 165.90625 188.269531 169.023438 180.121094 169.085938 164.078125 C 169.113281 157.910156 168.355469 150.867188 166.914062 143.1875 Z M 263.503906 167.09375 C 262.792969 162.121094 262.0625 156.976562 262.242188 151.390625 C 262.398438 146.332031 262.957031 141.558594 263.496094 136.941406 C 263.917969 133.308594 264.246094 129.816406 264.4375 126.375 C 255.648438 127.105469 249.8125 129.640625 247.042969 133.929688 C 248.1875 133.539062 249.484375 133.234375 250.914062 133.050781 C 256.996094 132.257812 261.4375 134.011719 261.949219 137.394531 C 262.324219 139.867188 260.222656 142.199219 259.300781 143.09375 C 257.414062 144.925781 255.035156 146.105469 252.613281 146.421875 C 252.175781 146.476562 251.734375 146.503906 251.304688 146.503906 C 248.898438 146.503906 246.601562 145.675781 244.835938 144.457031 C 245.597656 157.910156 255.519531 175.902344 260.398438 184.730469 C 261.441406 186.621094 262.246094 188.128906 262.914062 189.421875 C 265.59375 181.792969 264.605469 174.839844 263.503906 167.09375 Z M 263.503906 167.09375 " fill-opacity="1" fill-rule="nonzero"/></svg>