<svg xmlns="http://www.w3.org/2000/svg" xmlns:xlink="http://www.w3.org/1999/xlink" width="500" zoomAndPan="magnify" viewBox="0 0 375 374.999991" height="500" preserveAspectRatio="xMidYMid meet" version="1.0"><defs><clipPath id="4344843094"><path d="M 37.5 59 L 337.5 59 L 337.5 327 L 37.5 327 Z M 37.5 59 " clip-rule="nonzero"/></clipPath></defs><g clip-path="url(#4344843094)"><path fill="#00d8ff" d="M 284.054688 146.011719 C 280.863281 144.917969 277.644531 143.902344 274.402344 142.964844 C 274.945312 140.738281 275.445312 138.535156 275.890625 136.375 C 283.199219 100.855469 278.421875 72.242188 262.105469 62.820312 C 246.460938 53.789062 220.878906 63.207031 195.039062 85.722656 C 192.496094 87.945312 190.003906 90.234375 187.574219 92.582031 C 185.945312 91.019531 184.289062 89.488281 182.605469 87.988281 C 155.527344 63.914062 128.382812 53.765625 112.085938 63.214844 C 96.453125 72.273438 91.828125 99.171875 98.40625 132.832031 C 99.058594 136.167969 99.796875 139.484375 100.621094 142.78125 C 96.78125 143.875 93.070312 145.035156 89.523438 146.273438 C 57.773438 157.359375 37.5 174.730469 37.5 192.746094 C 37.5 211.355469 59.265625 230.019531 92.332031 241.339844 C 95.015625 242.253906 97.71875 243.097656 100.441406 243.878906 C 99.558594 247.429688 98.769531 251.003906 98.085938 254.597656 C 91.816406 287.671875 96.710938 313.9375 112.300781 322.9375 C 128.398438 332.234375 155.421875 322.679688 181.730469 299.648438 C 183.863281 297.777344 185.949219 295.851562 187.988281 293.875 C 190.621094 296.417969 193.324219 298.886719 196.09375 301.28125 C 221.582031 323.242188 246.75 332.109375 262.324219 323.082031 C 278.40625 313.757812 283.632812 285.542969 276.847656 251.21875 C 276.3125 248.527344 275.714844 245.851562 275.050781 243.191406 C 276.945312 242.628906 278.808594 242.050781 280.625 241.449219 C 315.003906 230.042969 337.371094 211.605469 337.371094 192.746094 C 337.371094 174.664062 316.441406 157.175781 284.054688 146.011719 Z M 276.597656 229.273438 C 274.957031 229.816406 273.273438 230.339844 271.558594 230.851562 C 267.765625 218.820312 262.644531 206.027344 256.375 192.808594 C 262.355469 179.90625 267.28125 167.277344 270.96875 155.324219 C 274.039062 156.214844 277.015625 157.152344 279.882812 158.140625 C 307.632812 167.707031 324.558594 181.847656 324.558594 192.746094 C 324.558594 204.355469 306.28125 219.421875 276.597656 229.273438 Z M 264.28125 253.710938 C 267.28125 268.886719 267.710938 282.609375 265.722656 293.339844 C 263.9375 302.980469 260.34375 309.40625 255.902344 311.980469 C 246.453125 317.457031 226.246094 310.339844 204.449219 291.558594 C 201.871094 289.332031 199.359375 287.039062 196.910156 284.671875 C 205.359375 275.417969 213.804688 264.664062 222.046875 252.714844 C 236.542969 251.425781 250.238281 249.320312 262.65625 246.445312 C 263.257812 248.855469 263.796875 251.277344 264.28125 253.710938 Z M 139.730469 311.035156 C 130.5 314.300781 123.144531 314.394531 118.699219 311.824219 C 109.242188 306.363281 105.308594 285.277344 110.671875 256.988281 C 111.308594 253.644531 112.039062 250.324219 112.863281 247.019531 C 125.144531 249.742188 138.742188 251.699219 153.273438 252.878906 C 161.570312 264.570312 170.257812 275.3125 179.015625 284.722656 C 177.152344 286.527344 175.25 288.28125 173.300781 289.992188 C 161.664062 300.175781 150.007812 307.402344 139.730469 311.035156 Z M 96.476562 229.199219 C 81.855469 224.195312 69.78125 217.691406 61.503906 210.59375 C 54.066406 204.21875 50.3125 197.882812 50.3125 192.746094 C 50.3125 181.8125 66.589844 167.867188 93.742188 158.386719 C 97.035156 157.238281 100.484375 156.152344 104.0625 155.136719 C 107.816406 167.359375 112.738281 180.136719 118.679688 193.058594 C 112.660156 206.171875 107.667969 219.15625 103.878906 231.523438 C 101.394531 230.808594 98.925781 230.035156 96.476562 229.199219 Z M 110.976562 130.367188 C 105.34375 101.53125 109.085938 79.777344 118.503906 74.316406 C 128.535156 68.5 150.71875 76.792969 174.101562 97.582031 C 175.625 98.941406 177.125 100.324219 178.597656 101.738281 C 169.886719 111.105469 161.277344 121.773438 153.054688 133.394531 C 138.949219 134.703125 125.449219 136.804688 113.039062 139.621094 C 112.273438 136.554688 111.585938 133.46875 110.976562 130.371094 Z M 240.328125 162.351562 C 237.394531 157.28125 234.355469 152.273438 231.207031 147.335938 C 240.777344 148.546875 249.945312 150.15625 258.550781 152.121094 C 255.96875 160.417969 252.746094 169.085938 248.953125 177.980469 C 246.183594 172.714844 243.308594 167.503906 240.328125 162.351562 Z M 187.578125 110.90625 C 193.488281 117.316406 199.40625 124.472656 205.226562 132.238281 C 193.417969 131.679688 181.589844 131.675781 169.785156 132.230469 C 175.609375 124.539062 181.578125 117.390625 187.578125 110.90625 Z M 134.492188 162.441406 C 131.550781 167.550781 128.726562 172.726562 126.027344 177.96875 C 122.296875 169.109375 119.105469 160.398438 116.5 151.984375 C 125.054688 150.070312 134.175781 148.5 143.683594 147.3125 C 140.503906 152.28125 137.4375 157.324219 134.492188 162.441406 Z M 143.957031 239.09375 C 134.136719 237.996094 124.875 236.511719 116.320312 234.644531 C 118.96875 226.082031 122.230469 217.1875 126.042969 208.136719 C 128.753906 213.382812 131.585938 218.5625 134.542969 223.675781 C 137.582031 228.929688 140.726562 234.074219 143.957031 239.09375 Z M 187.933594 275.492188 C 181.859375 268.933594 175.804688 261.675781 169.890625 253.871094 C 175.632812 254.09375 181.484375 254.210938 187.433594 254.210938 C 193.546875 254.210938 199.589844 254.074219 205.535156 253.808594 C 199.695312 261.753906 193.800781 269.019531 187.933594 275.492188 Z M 249.074219 207.675781 C 253.085938 216.824219 256.460938 225.671875 259.144531 234.089844 C 250.449219 236.078125 241.0625 237.675781 231.171875 238.863281 C 234.34375 233.832031 237.410156 228.738281 240.378906 223.585938 C 243.394531 218.347656 246.296875 213.042969 249.074219 207.675781 Z M 229.28125 217.175781 C 224.738281 225.078125 219.941406 232.828125 214.894531 240.417969 C 205.757812 241.066406 196.597656 241.390625 187.433594 241.382812 C 178.101562 241.382812 169.027344 241.09375 160.285156 240.527344 C 155.109375 232.953125 150.21875 225.1875 145.628906 217.246094 C 141.058594 209.347656 136.792969 201.277344 132.832031 193.054688 C 136.78125 184.828125 141.035156 176.753906 145.589844 168.847656 C 150.140625 160.941406 154.992188 153.210938 160.128906 145.671875 C 169.046875 144.996094 178.191406 144.640625 187.433594 144.640625 C 196.71875 144.640625 205.875 144.996094 214.792969 145.679688 C 219.878906 153.207031 224.695312 160.910156 229.238281 168.777344 C 233.808594 176.667969 238.121094 184.703125 242.167969 192.871094 C 238.160156 201.125 233.863281 209.230469 229.28125 217.175781 Z M 255.707031 73.933594 C 265.75 79.730469 269.65625 103.117188 263.34375 133.785156 C 262.941406 135.738281 262.488281 137.734375 262 139.753906 C 249.554688 136.878906 236.046875 134.738281 221.902344 133.410156 C 213.664062 121.660156 205.125 110.980469 196.554688 101.730469 C 198.800781 99.5625 201.101562 97.453125 203.449219 95.398438 C 225.589844 76.105469 246.28125 68.488281 255.707031 73.933594 Z M 187.433594 165.933594 C 202.222656 165.933594 214.210938 177.9375 214.210938 192.746094 C 214.210938 207.554688 202.222656 219.558594 187.433594 219.558594 C 172.644531 219.558594 160.65625 207.554688 160.65625 192.746094 C 160.65625 177.9375 172.644531 165.933594 187.433594 165.933594 Z M 187.433594 165.933594 " fill-opacity="1" fill-rule="nonzero"/></g></svg>