<svg xmlns="http://www.w3.org/2000/svg" xmlns:xlink="http://www.w3.org/1999/xlink" width="500" zoomAndPan="magnify" viewBox="0 0 375 374.999991" height="500" preserveAspectRatio="xMidYMid meet" version="1.0"><defs><clipPath id="673f15b67d"><path d="M 48 52.226562 L 334 52.226562 L 334 322.976562 L 48 322.976562 Z M 48 52.226562 " clip-rule="nonzero"/></clipPath></defs><g clip-path="url(#673f15b67d)"><path fill="#764abc" d="M 245.539062 241.339844 C 256.058594 240.257812 264.042969 231.179688 263.675781 220.292969 C 263.304688 209.394531 254.242188 200.695312 243.367188 200.695312 L 242.632812 200.695312 C 231.398438 201.050781 222.691406 210.488281 223.046875 221.742188 C 223.414062 227.191406 225.585938 231.902344 228.859375 235.167969 C 216.523438 259.492188 197.664062 277.285156 169.375 292.160156 C 150.152344 302.320312 130.203125 305.953125 110.253906 303.410156 C 93.933594 301.238281 81.242188 293.976562 73.261719 281.996094 C 61.65625 264.214844 60.566406 244.972656 70.359375 225.730469 C 77.25 211.9375 88.132812 201.773438 95.023438 196.695312 C 93.570312 191.980469 91.394531 183.992188 90.308594 178.1875 C 37.71875 216.292969 43.15625 267.835938 59.117188 292.160156 C 71.085938 310.308594 95.386719 321.5625 122.222656 321.5625 C 129.476562 321.5625 136.730469 320.839844 143.984375 319.023438 C 190.40625 309.953125 225.585938 282.363281 245.539062 241.339844 Z M 309.375 196.335938 C 281.808594 164.027344 241.183594 146.242188 194.757812 146.242188 L 188.957031 146.242188 C 185.695312 139.707031 178.804688 135.351562 171.191406 135.351562 L 170.464844 135.351562 C 159.21875 135.714844 150.515625 145.152344 150.878906 156.40625 C 151.238281 167.289062 160.300781 176.003906 171.191406 176.003906 L 171.914062 176.003906 C 179.894531 175.648438 186.789062 170.566406 189.683594 163.667969 L 196.21875 163.667969 C 223.773438 163.667969 249.890625 171.648438 273.472656 187.257812 C 291.597656 199.234375 304.65625 214.84375 311.914062 233.71875 C 318.082031 248.960938 317.714844 263.847656 311.191406 276.546875 C 301.027344 295.789062 283.980469 306.320312 261.492188 306.320312 C 246.984375 306.320312 233.203125 301.964844 225.953125 298.699219 C 221.96875 302.320312 214.710938 308.136719 209.632812 311.757812 C 225.230469 319.023438 241.183594 323.011719 256.414062 323.011719 C 291.238281 323.011719 316.992188 303.78125 326.777344 284.539062 C 337.296875 263.488281 336.574219 227.191406 309.375 196.335938 Z M 125.121094 247.511719 C 125.484375 258.398438 134.550781 267.113281 145.429688 267.113281 L 146.15625 267.113281 C 157.398438 266.753906 166.105469 257.316406 165.738281 246.0625 C 165.382812 235.167969 156.3125 226.464844 145.429688 226.464844 L 144.707031 226.464844 C 143.980469 226.464844 142.890625 226.464844 142.167969 226.820312 C 127.296875 202.140625 121.132812 175.277344 123.304688 146.242188 C 124.757812 124.460938 132.011719 105.585938 144.707031 89.976562 C 155.222656 76.546875 175.539062 70.011719 189.320312 69.652344 C 227.761719 68.925781 244.085938 116.839844 245.175781 136.078125 C 249.886719 137.164062 257.867188 139.707031 263.300781 141.523438 C 258.949219 82.71875 222.6875 52.226562 187.863281 52.226562 C 155.222656 52.226562 125.121094 75.820312 113.152344 110.667969 C 96.46875 157.128906 107.347656 201.773438 127.660156 236.984375 C 125.847656 239.523438 124.757812 243.523438 125.121094 247.515625 Z M 125.121094 247.511719 " fill-opacity="1" fill-rule="nonzero"/></g></svg>